<svg xmlns="http://www.w3.org/2000/svg" width="1200" height="630" viewBox="0 0 1200 630" role="img" aria-label="Ẩm thực"><defs><linearGradient id="bg" x1="0" y1="0" x2="0.6" y2="1"><stop offset="0" stop-color="#3a1414"/><stop offset="1" stop-color="#2a0d0d"/></linearGradient></defs><rect width="1200" height="630" fill="url(#bg)"/><circle cx="80" cy="80" r="2" fill="#ffffff" opacity="0.05"/><circle cx="222" cy="80" r="2" fill="#ffffff" opacity="0.09"/><circle cx="346" cy="80" r="4" fill="#ffffff" opacity="0.07"/><circle cx="470" cy="80" r="2" fill="#ffffff" opacity="0.05"/><circle cx="600" cy="80" r="2" fill="#ffffff" opacity="0.05"/><circle cx="742" cy="80" r="2" fill="#ffffff" opacity="0.09"/><circle cx="878" cy="80" r="4" fill="#ffffff" opacity="0.11"/><circle cx="996" cy="80" r="4" fill="#ffffff" opacity="0.05"/><circle cx="1132" cy="80" r="2" fill="#ffffff" opacity="0.09"/><circle cx="86" cy="230" r="4" fill="#ffffff" opacity="0.07"/><circle cx="210" cy="230" r="2" fill="#ffffff" opacity="0.05"/><circle cx="352" cy="230" r="2" fill="#ffffff" opacity="0.05"/><circle cx="476" cy="230" r="2" fill="#ffffff" opacity="0.09"/><circle cx="600" cy="230" r="4" fill="#ffffff" opacity="0.11"/><circle cx="742" cy="230" r="2" fill="#ffffff" opacity="0.05"/><circle cx="878" cy="230" r="2" fill="#ffffff" opacity="0.09"/><circle cx="990" cy="230" r="2" fill="#ffffff" opacity="0.07"/><circle cx="1132" cy="230" r="4" fill="#ffffff" opacity="0.05"/><circle cx="86" cy="380" r="4" fill="#ffffff" opacity="0.05"/><circle cx="210" cy="380" r="2" fill="#ffffff" opacity="0.09"/><circle cx="340" cy="380" r="4" fill="#ffffff" opacity="0.11"/><circle cx="482" cy="380" r="2" fill="#ffffff" opacity="0.05"/><circle cx="618" cy="380" r="2" fill="#ffffff" opacity="0.09"/><circle cx="736" cy="380" r="2" fill="#ffffff" opacity="0.07"/><circle cx="872" cy="380" r="4" fill="#ffffff" opacity="0.05"/><circle cx="996" cy="380" r="2" fill="#ffffff" opacity="0.05"/><circle cx="1120" cy="380" r="2" fill="#ffffff" opacity="0.09"/><circle cx="92" cy="530" r="2" fill="#ffffff" opacity="0.11"/><circle cx="216" cy="530" r="4" fill="#ffffff" opacity="0.05"/><circle cx="340" cy="530" r="4" fill="#ffffff" opacity="0.09"/><circle cx="482" cy="530" r="2" fill="#ffffff" opacity="0.07"/><circle cx="618" cy="530" r="4" fill="#ffffff" opacity="0.05"/><circle cx="730" cy="530" r="2" fill="#ffffff" opacity="0.05"/><circle cx="872" cy="530" r="2" fill="#ffffff" opacity="0.09"/><circle cx="996" cy="530" r="2" fill="#ffffff" opacity="0.11"/><circle cx="1120" cy="530" r="4" fill="#ffffff" opacity="0.05"/><rect x="90" y="78" width="56" height="6" rx="3" fill="#ff6b6b"/><text x="92" y="120" font-size="26" font-weight="700" fill="#ff6b6b" letter-spacing="3" font-family="Inter, 'Helvetica Neue', Arial, sans-serif">SEOMONEY</text><text x="90" y="300" font-size="68" font-weight="800" fill="#ffffff" font-family="Inter, 'Helvetica Neue', Arial, sans-serif" letter-spacing="-1.5">Ẩm thực</text><g transform="translate(90, 548)"><rect x="0" y="-26" width="34" height="34" rx="8" fill="none" stroke="#ff6b6b" stroke-width="3"/><text x="8" y="0" font-size="26" font-weight="800" fill="#ff6b6b" font-family="Inter, Arial, sans-serif">S</text><text x="50" y="0" font-size="30" font-weight="800" fill="#ffffff" letter-spacing="0.5" font-family="Inter, Arial, sans-serif">SEOMONEY</text></g><text x="1110" y="548" text-anchor="end" font-size="22" font-weight="600" fill="#ffffff" opacity="0.55" font-family="Inter, Arial, sans-serif">seomoney.org</text></svg>
