<svg xmlns="http://www.w3.org/2000/svg" width="1200" height="630" viewBox="0 0 1200 630" role="img" aria-label="Công nghệ"><defs><linearGradient id="bg" x1="0" y1="0" x2="0.6" y2="1"><stop offset="0" stop-color="#0f2a4a"/><stop offset="1" stop-color="#0b1f38"/></linearGradient></defs><rect width="1200" height="630" fill="url(#bg)"/><circle cx="80" cy="80" r="2" fill="#ffffff" opacity="0.05"/><circle cx="210" cy="80" r="2" fill="#ffffff" opacity="0.05"/><circle cx="352" cy="80" r="2" fill="#ffffff" opacity="0.09"/><circle cx="488" cy="80" r="4" fill="#ffffff" opacity="0.11"/><circle cx="606" cy="80" r="4" fill="#ffffff" opacity="0.07"/><circle cx="730" cy="80" r="2" fill="#ffffff" opacity="0.05"/><circle cx="860" cy="80" r="2" fill="#ffffff" opacity="0.05"/><circle cx="990" cy="80" r="2" fill="#ffffff" opacity="0.05"/><circle cx="1120" cy="80" r="2" fill="#ffffff" opacity="0.05"/><circle cx="92" cy="230" r="2" fill="#ffffff" opacity="0.09"/><circle cx="216" cy="230" r="4" fill="#ffffff" opacity="0.11"/><circle cx="340" cy="230" r="2" fill="#ffffff" opacity="0.07"/><circle cx="470" cy="230" r="2" fill="#ffffff" opacity="0.05"/><circle cx="600" cy="230" r="2" fill="#ffffff" opacity="0.05"/><circle cx="730" cy="230" r="4" fill="#ffffff" opacity="0.05"/><circle cx="860" cy="230" r="4" fill="#ffffff" opacity="0.05"/><circle cx="990" cy="230" r="2" fill="#ffffff" opacity="0.09"/><circle cx="1120" cy="230" r="2" fill="#ffffff" opacity="0.11"/><circle cx="92" cy="380" r="2" fill="#ffffff" opacity="0.07"/><circle cx="228" cy="380" r="2" fill="#ffffff" opacity="0.05"/><circle cx="346" cy="380" r="2" fill="#ffffff" opacity="0.05"/><circle cx="470" cy="380" r="4" fill="#ffffff" opacity="0.05"/><circle cx="600" cy="380" r="2" fill="#ffffff" opacity="0.05"/><circle cx="730" cy="380" r="2" fill="#ffffff" opacity="0.09"/><circle cx="860" cy="380" r="2" fill="#ffffff" opacity="0.11"/><circle cx="1002" cy="380" r="4" fill="#ffffff" opacity="0.07"/><circle cx="1126" cy="380" r="4" fill="#ffffff" opacity="0.05"/><circle cx="80" cy="530" r="2" fill="#ffffff" opacity="0.05"/><circle cx="210" cy="530" r="2" fill="#ffffff" opacity="0.05"/><circle cx="340" cy="530" r="2" fill="#ffffff" opacity="0.05"/><circle cx="470" cy="530" r="2" fill="#ffffff" opacity="0.09"/><circle cx="600" cy="530" r="2" fill="#ffffff" opacity="0.11"/><circle cx="730" cy="530" r="4" fill="#ffffff" opacity="0.07"/><circle cx="860" cy="530" r="2" fill="#ffffff" opacity="0.05"/><circle cx="1002" cy="530" r="2" fill="#ffffff" opacity="0.05"/><circle cx="1138" cy="530" r="2" fill="#ffffff" opacity="0.05"/><rect x="90" y="78" width="56" height="6" rx="3" fill="#4c8dff"/><text x="92" y="120" font-size="26" font-weight="700" fill="#4c8dff" letter-spacing="3" font-family="Inter, 'Helvetica Neue', Arial, sans-serif">SEOMONEY</text><text x="90" y="300" font-size="68" font-weight="800" fill="#ffffff" font-family="Inter, 'Helvetica Neue', Arial, sans-serif" letter-spacing="-1.5">Công nghệ</text><g transform="translate(90, 548)"><rect x="0" y="-26" width="34" height="34" rx="8" fill="none" stroke="#4c8dff" stroke-width="3"/><text x="8" y="0" font-size="26" font-weight="800" fill="#4c8dff" font-family="Inter, Arial, sans-serif">S</text><text x="50" y="0" font-size="30" font-weight="800" fill="#ffffff" letter-spacing="0.5" font-family="Inter, Arial, sans-serif">SEOMONEY</text></g><text x="1110" y="548" text-anchor="end" font-size="22" font-weight="600" fill="#ffffff" opacity="0.55" font-family="Inter, Arial, sans-serif">seomoney.org</text></svg>
