<svg xmlns="http://www.w3.org/2000/svg" width="1200" height="800" viewBox="0 0 1200 800" role="img">
  <defs>
<<<<<<<< HEAD:static/generated/covers/kinh-nghiem-xay-cms-v2-cho-blog-zola.svg
    <linearGradient id="g34885" x1="0" y1="0" x2="1" y2="1">
      <stop offset="0" stop-color="#0f3d3a"/>
      <stop offset="1" stop-color="#0f766e"/>
    </linearGradient>
  </defs>
  <rect width="1200" height="800" fill="url(#g34885)"/>
  <circle cx="885" cy="485" r="285" fill="#2dd4bf" opacity="0.08"/><circle cx="815" cy="3" r="140" fill="#2dd4bf" opacity="0.10"/><circle cx="100" cy="656" r="167" fill="#2dd4bf" opacity="0.09"/><circle cx="1128" cy="448" r="260" fill="#2dd4bf" opacity="0.10"/>
  <!-- category chip -->
  <rect x="80" y="84" rx="20" ry="20" width="258" height="48" fill="#2dd4bf" opacity="0.22"/>
  <text x="104" y="116" font-family="'Segoe UI',Roboto,Arial,sans-serif" font-size="26" font-weight="600" fill="#e2e8f0" letter-spacing="1">CÔNG NGHỆ</text>
========
    <linearGradient id="g5989" x1="0" y1="0" x2="1" y2="1">
      <stop offset="0" stop-color="#3b1f1a"/>
      <stop offset="1" stop-color="#9d174d"/>
    </linearGradient>
  </defs>
  <rect width="1200" height="800" fill="url(#g5989)"/>
  <circle cx="789" cy="389" r="189" fill="#f472b6" opacity="0.08"/><circle cx="437" cy="109" r="128" fill="#f472b6" opacity="0.10"/><circle cx="313" cy="219" r="278" fill="#f472b6" opacity="0.09"/><circle cx="909" cy="270" r="207" fill="#f472b6" opacity="0.07"/>
  <!-- category chip -->
  <rect x="80" y="84" rx="20" ry="20" width="214" height="48" fill="#f472b6" opacity="0.22"/>
  <text x="104" y="116" font-family="'Segoe UI',Roboto,Arial,sans-serif" font-size="26" font-weight="600" fill="#e2e8f0" letter-spacing="1">DU LỊCH</text>
>>>>>>>> edecb95c (feat(images): 20 OG fallback templates + 20 gradients, alt-text = title):static/generated/covers/mcc-masterclass-personal-strategy.svg
  <!-- title -->
  <text font-family="'Segoe UI',Roboto,Arial,sans-serif" font-weight="800" fill="#f8fafc" letter-spacing="0.5" font-size="56"><tspan x="80" y="324">Kinh nghiệm xây CMS-V2</tspan><tspan x="80" y="390">cho blog Zola: một đêm</tspan><tspan x="80" y="456">từ PR sạch đến deploy</tspan><tspan x="80" y="522">sống</tspan></text>
  <!-- footer: S-DNA mark + wordmark -->
  <text x="80" y="730" font-family="'Segoe UI',Roboto,Arial,sans-serif" font-size="40" fill="#f472b6">&#9672;</text>
  <text x="128" y="728" font-family="'Segoe UI',Roboto,Arial,sans-serif" font-size="34" font-weight="800" fill="#f8fafc" letter-spacing="2">SEOMONEY</text>
  <text x="128" y="758" font-family="'Segoe UI',Roboto,Arial,sans-serif" font-size="20" fill="#cbd5e1" opacity="0.85">seomoney.org</text>
</svg>
