<svg xmlns="http://www.w3.org/2000/svg" viewBox="0 0 1600 700" width="1600" height="700" role="img" aria-label="Ủng hộ dự án AI — chung tay gây quỹ mua tên miền .AI">
  <defs>
    <linearGradient id="g" x1="0" y1="0" x2="1" y2="1">
      <stop offset="0" stop-color="#003784"/>
      <stop offset="1" stop-color="#00a69d"/>
    </linearGradient>
  </defs>
  <rect width="1600" height="700" fill="url(#g)"/>
  <circle cx="1330" cy="120" r="340" fill="#5b9bff" opacity="0.16"/>
  <circle cx="1500" cy="600" r="220" fill="#ffffff" opacity="0.06"/>
  <circle cx="180" cy="560" r="160" fill="#ffffff" opacity="0.05"/>
  <path d="M1245 250 c0-46 37-83 83-83 30 0 56 16 70 40 14-24 40-40 70-40 46 0 83 37 83 83 0 64-58 116-153 196-95-80-153-132-153-196z" fill="#ffffff" opacity="0.18"/>
  <rect x="80" y="92" rx="24" ry="24" width="223" height="58" fill="#ffffff" opacity="0.20"/>
  <text x="104" y="131" font-family="'Helvetica Neue', Arial, 'Segoe UI', 'Noto Sans', sans-serif" font-size="28" font-weight="700" fill="#ffffff" letter-spacing="3">CÔNG NGHỆ</text>
  <text x="80" y="300" font-family="'Helvetica Neue', Arial, 'Segoe UI', 'Noto Sans', sans-serif" font-size="92" font-weight="800" fill="#ffffff">Ủng Hộ Dự Án AI</text>
  <text x="80" y="408" font-family="'Helvetica Neue', Arial, 'Segoe UI', 'Noto Sans', sans-serif" font-size="48" font-weight="600" fill="#e6f0ff">Chung tay gây quỹ mua tên miền .AI</text>
  <text x="80" y="520" font-family="'Helvetica Neue', Arial, 'Segoe UI', 'Noto Sans', sans-serif" font-size="34" font-weight="500" fill="#cfe0f5" opacity="0.92">Phi lợi nhuận · Tự nguyện · Minh bạch</text>
</svg>
